<mxfile host="app.diagrams.net" modified="2023-07-31T19:57:35.299Z" agent="Mozilla/5.0 (Windows NT 10.0; Win64; x64) AppleWebKit/537.36 (KHTML, like Gecko) Chrome/115.0.0.0 Safari/537.36" etag="Z04KZslKSgU1659FMnYt" version="21.6.6" type="github">
  <diagram name="Página-1" id="lr3kAhzT1ss1wWY2xJLK">
    <mxGraphModel dx="1434" dy="792" grid="1" gridSize="10" guides="1" tooltips="1" connect="1" arrows="1" fold="1" page="1" pageScale="1" pageWidth="827" pageHeight="1169" math="0" shadow="0">
      <root>
        <mxCell id="0" />
        <mxCell id="1" parent="0" />
        <mxCell id="aVP3vMrV69iml3FKFdR7-1" value="" style="group" vertex="1" connectable="0" parent="1">
          <mxGeometry x="39" y="40" width="761" height="680" as="geometry" />
        </mxCell>
        <mxCell id="IuVCAA6UByhy66WbA-RG-21" value="" style="group" parent="aVP3vMrV69iml3FKFdR7-1" vertex="1" connectable="0">
          <mxGeometry width="761" height="680" as="geometry" />
        </mxCell>
        <mxCell id="IuVCAA6UByhy66WbA-RG-2" value="F03 - reporte de cuentas bancarias." style="rounded=1;whiteSpace=wrap;html=1;" parent="IuVCAA6UByhy66WbA-RG-21" vertex="1">
          <mxGeometry x="1" width="280" height="40" as="geometry" />
        </mxCell>
        <mxCell id="IuVCAA6UByhy66WbA-RG-4" value="Fecha inicial" style="rounded=1;whiteSpace=wrap;html=1;" parent="IuVCAA6UByhy66WbA-RG-21" vertex="1">
          <mxGeometry x="1" y="90" width="90" height="20" as="geometry" />
        </mxCell>
        <mxCell id="IuVCAA6UByhy66WbA-RG-5" value="Fecha final" style="rounded=1;whiteSpace=wrap;html=1;" parent="IuVCAA6UByhy66WbA-RG-21" vertex="1">
          <mxGeometry x="131" y="90" width="90" height="20" as="geometry" />
        </mxCell>
        <mxCell id="IuVCAA6UByhy66WbA-RG-6" value="Generar reporte" style="rounded=1;whiteSpace=wrap;html=1;fillColor=#1A88E8;strokeColor=#2EB319;" parent="IuVCAA6UByhy66WbA-RG-21" vertex="1">
          <mxGeometry x="381" y="90" width="120" height="20" as="geometry" />
        </mxCell>
        <mxCell id="IuVCAA6UByhy66WbA-RG-89" value="" style="group" parent="IuVCAA6UByhy66WbA-RG-21" vertex="1" connectable="0">
          <mxGeometry y="140" width="761" height="540" as="geometry" />
        </mxCell>
        <mxCell id="IuVCAA6UByhy66WbA-RG-8" value="Formato F03 - Cuentas bancarias" style="swimlane;whiteSpace=wrap;html=1;" parent="IuVCAA6UByhy66WbA-RG-89" vertex="1">
          <mxGeometry width="760" height="540" as="geometry" />
        </mxCell>
        <mxCell id="IuVCAA6UByhy66WbA-RG-31" value="" style="group" parent="IuVCAA6UByhy66WbA-RG-8" vertex="1" connectable="0">
          <mxGeometry x="1" y="30" width="749" height="510" as="geometry" />
        </mxCell>
        <mxCell id="IuVCAA6UByhy66WbA-RG-12" value="Banco O Entidad Financiera" style="text;html=1;strokeColor=none;fillColor=none;align=center;verticalAlign=middle;whiteSpace=wrap;rounded=0;strokeWidth=0;arcSize=10;fontSize=10;" parent="IuVCAA6UByhy66WbA-RG-31" vertex="1">
          <mxGeometry width="100" height="30" as="geometry" />
        </mxCell>
        <mxCell id="IuVCAA6UByhy66WbA-RG-13" value="Código Contable" style="text;html=1;strokeColor=none;fillColor=none;align=center;verticalAlign=middle;whiteSpace=wrap;rounded=0;strokeWidth=0;arcSize=10;fontSize=10;" parent="IuVCAA6UByhy66WbA-RG-31" vertex="1">
          <mxGeometry x="100" width="90" height="30" as="geometry" />
        </mxCell>
        <mxCell id="IuVCAA6UByhy66WbA-RG-14" value="Destinación De La Cuenta" style="text;html=1;strokeColor=none;fillColor=none;align=center;verticalAlign=middle;whiteSpace=wrap;rounded=0;strokeWidth=0;arcSize=10;fontSize=10;" parent="IuVCAA6UByhy66WbA-RG-31" vertex="1">
          <mxGeometry x="300" width="90" height="30" as="geometry" />
        </mxCell>
        <mxCell id="IuVCAA6UByhy66WbA-RG-15" value="Ingresos" style="text;html=1;strokeColor=none;fillColor=none;align=center;verticalAlign=middle;whiteSpace=wrap;rounded=0;strokeWidth=0;arcSize=10;fontSize=10;" parent="IuVCAA6UByhy66WbA-RG-31" vertex="1">
          <mxGeometry x="416" width="55" height="30" as="geometry" />
        </mxCell>
        <mxCell id="IuVCAA6UByhy66WbA-RG-16" value="Saldo Libro De Contabilidad" style="text;html=1;strokeColor=none;fillColor=none;align=center;verticalAlign=middle;whiteSpace=wrap;rounded=0;strokeWidth=0;arcSize=10;fontSize=10;" parent="IuVCAA6UByhy66WbA-RG-31" vertex="1">
          <mxGeometry x="471" width="90" height="30" as="geometry" />
        </mxCell>
        <mxCell id="IuVCAA6UByhy66WbA-RG-17" value="Saldo Extracto Bancario" style="text;html=1;strokeColor=none;fillColor=none;align=center;verticalAlign=middle;whiteSpace=wrap;rounded=0;strokeWidth=0;arcSize=10;fontSize=10;" parent="IuVCAA6UByhy66WbA-RG-31" vertex="1">
          <mxGeometry x="561" width="109" height="30" as="geometry" />
        </mxCell>
        <mxCell id="IuVCAA6UByhy66WbA-RG-20" value="Saldo Libro Tesorería" style="text;html=1;strokeColor=none;fillColor=none;align=center;verticalAlign=middle;whiteSpace=wrap;rounded=0;strokeWidth=0;arcSize=10;fontSize=10;" parent="IuVCAA6UByhy66WbA-RG-31" vertex="1">
          <mxGeometry x="670" width="79" height="30" as="geometry" />
        </mxCell>
        <mxCell id="IuVCAA6UByhy66WbA-RG-23" value="" style="endArrow=none;html=1;rounded=0;" parent="IuVCAA6UByhy66WbA-RG-31" edge="1">
          <mxGeometry width="50" height="50" relative="1" as="geometry">
            <mxPoint x="290" y="510" as="sourcePoint" />
            <mxPoint x="290" as="targetPoint" />
          </mxGeometry>
        </mxCell>
        <mxCell id="IuVCAA6UByhy66WbA-RG-24" value="" style="endArrow=none;html=1;rounded=0;" parent="IuVCAA6UByhy66WbA-RG-31" edge="1">
          <mxGeometry width="50" height="50" relative="1" as="geometry">
            <mxPoint x="400" y="510" as="sourcePoint" />
            <mxPoint x="400" as="targetPoint" />
          </mxGeometry>
        </mxCell>
        <mxCell id="IuVCAA6UByhy66WbA-RG-25" value="" style="endArrow=none;html=1;rounded=0;entryX=0;entryY=0;entryDx=0;entryDy=0;" parent="IuVCAA6UByhy66WbA-RG-31" target="IuVCAA6UByhy66WbA-RG-16" edge="1">
          <mxGeometry width="50" height="50" relative="1" as="geometry">
            <mxPoint x="471" y="510" as="sourcePoint" />
            <mxPoint x="420" as="targetPoint" />
          </mxGeometry>
        </mxCell>
        <mxCell id="IuVCAA6UByhy66WbA-RG-26" value="" style="endArrow=none;html=1;rounded=0;entryX=0;entryY=0;entryDx=0;entryDy=0;" parent="IuVCAA6UByhy66WbA-RG-31" target="IuVCAA6UByhy66WbA-RG-17" edge="1">
          <mxGeometry width="50" height="50" relative="1" as="geometry">
            <mxPoint x="560" y="510" as="sourcePoint" />
            <mxPoint x="521" as="targetPoint" />
          </mxGeometry>
        </mxCell>
        <mxCell id="IuVCAA6UByhy66WbA-RG-27" value="" style="endArrow=none;html=1;rounded=0;" parent="IuVCAA6UByhy66WbA-RG-31" edge="1">
          <mxGeometry width="50" height="50" relative="1" as="geometry">
            <mxPoint x="660" y="510" as="sourcePoint" />
            <mxPoint x="660" as="targetPoint" />
          </mxGeometry>
        </mxCell>
        <mxCell id="IuVCAA6UByhy66WbA-RG-32" value="Bancolombia" style="text;html=1;strokeColor=none;fillColor=none;align=center;verticalAlign=middle;whiteSpace=wrap;rounded=0;" parent="IuVCAA6UByhy66WbA-RG-31" vertex="1">
          <mxGeometry x="20" y="40" width="60" height="30" as="geometry" />
        </mxCell>
        <mxCell id="IuVCAA6UByhy66WbA-RG-54" value="111005001" style="text;html=1;strokeColor=none;fillColor=none;align=center;verticalAlign=middle;whiteSpace=wrap;rounded=0;" parent="IuVCAA6UByhy66WbA-RG-31" vertex="1">
          <mxGeometry x="115" y="40" width="60" height="30" as="geometry" />
        </mxCell>
        <mxCell id="IuVCAA6UByhy66WbA-RG-58" value="PAGADORA 204 SANTA ROSALIA" style="text;html=1;strokeColor=none;fillColor=none;align=center;verticalAlign=middle;whiteSpace=wrap;rounded=0;fontSize=9;" parent="IuVCAA6UByhy66WbA-RG-31" vertex="1">
          <mxGeometry x="300" y="40" width="90" height="30" as="geometry" />
        </mxCell>
        <mxCell id="IuVCAA6UByhy66WbA-RG-57" value="205094312" style="text;html=1;strokeColor=none;fillColor=none;align=center;verticalAlign=middle;whiteSpace=wrap;rounded=0;" parent="IuVCAA6UByhy66WbA-RG-31" vertex="1">
          <mxGeometry x="410" y="40" width="60" height="30" as="geometry" />
        </mxCell>
        <mxCell id="IuVCAA6UByhy66WbA-RG-56" value="3356951" style="text;html=1;strokeColor=none;fillColor=none;align=center;verticalAlign=middle;whiteSpace=wrap;rounded=0;" parent="IuVCAA6UByhy66WbA-RG-31" vertex="1">
          <mxGeometry x="486" y="40" width="60" height="30" as="geometry" />
        </mxCell>
        <mxCell id="IuVCAA6UByhy66WbA-RG-55" value="3356948" style="text;html=1;strokeColor=none;fillColor=none;align=center;verticalAlign=middle;whiteSpace=wrap;rounded=0;" parent="IuVCAA6UByhy66WbA-RG-31" vertex="1">
          <mxGeometry x="585.5" y="40" width="60" height="30" as="geometry" />
        </mxCell>
        <mxCell id="IuVCAA6UByhy66WbA-RG-59" value="3356948" style="text;html=1;strokeColor=none;fillColor=none;align=center;verticalAlign=middle;whiteSpace=wrap;rounded=0;" parent="IuVCAA6UByhy66WbA-RG-31" vertex="1">
          <mxGeometry x="679.5" y="40" width="60" height="30" as="geometry" />
        </mxCell>
        <mxCell id="IuVCAA6UByhy66WbA-RG-60" value="Cuenta No" style="text;html=1;strokeColor=none;fillColor=none;align=center;verticalAlign=middle;whiteSpace=wrap;rounded=0;strokeWidth=0;arcSize=10;fontSize=10;" parent="IuVCAA6UByhy66WbA-RG-31" vertex="1">
          <mxGeometry x="210" width="70" height="30" as="geometry" />
        </mxCell>
        <mxCell id="IuVCAA6UByhy66WbA-RG-61" value="" style="endArrow=none;html=1;rounded=0;entryX=1;entryY=0;entryDx=0;entryDy=0;" parent="IuVCAA6UByhy66WbA-RG-31" edge="1">
          <mxGeometry width="50" height="50" relative="1" as="geometry">
            <mxPoint x="210" y="510" as="sourcePoint" />
            <mxPoint x="210" as="targetPoint" />
            <Array as="points">
              <mxPoint x="210" y="260" />
            </Array>
          </mxGeometry>
        </mxCell>
        <mxCell id="IuVCAA6UByhy66WbA-RG-62" value="8503004347" style="text;html=1;strokeColor=none;fillColor=none;align=center;verticalAlign=middle;whiteSpace=wrap;rounded=0;" parent="IuVCAA6UByhy66WbA-RG-31" vertex="1">
          <mxGeometry x="220" y="40" width="60" height="30" as="geometry" />
        </mxCell>
        <mxCell id="IuVCAA6UByhy66WbA-RG-63" value="" style="ellipse;whiteSpace=wrap;html=1;fillColor=#d5e8d4;strokeColor=#82b366;" parent="IuVCAA6UByhy66WbA-RG-31" vertex="1">
          <mxGeometry x="491" y="80" width="50" height="40" as="geometry" />
        </mxCell>
        <mxCell id="IuVCAA6UByhy66WbA-RG-88" value="" style="ellipse;whiteSpace=wrap;html=1;fillColor=#d5e8d4;strokeColor=#82b366;" parent="IuVCAA6UByhy66WbA-RG-31" vertex="1">
          <mxGeometry x="585.5" y="80" width="54.5" height="40" as="geometry" />
        </mxCell>
        <mxCell id="5qVPzQh_wLN_OTzZ5PAW-1" value="debitos - creditos&lt;br&gt;en las fechas indicadas" style="text;html=1;strokeColor=none;fillColor=none;align=center;verticalAlign=middle;whiteSpace=wrap;rounded=0;" parent="IuVCAA6UByhy66WbA-RG-31" vertex="1">
          <mxGeometry x="410" y="70" width="60" height="90" as="geometry" />
        </mxCell>
        <mxCell id="IuVCAA6UByhy66WbA-RG-11" value="" style="endArrow=none;html=1;rounded=0;" parent="IuVCAA6UByhy66WbA-RG-89" edge="1">
          <mxGeometry width="50" height="50" relative="1" as="geometry">
            <mxPoint x="1" y="60" as="sourcePoint" />
            <mxPoint x="761" y="60" as="targetPoint" />
            <Array as="points" />
          </mxGeometry>
        </mxCell>
        <mxCell id="IuVCAA6UByhy66WbA-RG-22" value="" style="endArrow=none;html=1;rounded=0;entryX=1;entryY=0;entryDx=0;entryDy=0;" parent="aVP3vMrV69iml3FKFdR7-1" target="IuVCAA6UByhy66WbA-RG-12" edge="1">
          <mxGeometry width="50" height="50" relative="1" as="geometry">
            <mxPoint x="101" y="680" as="sourcePoint" />
            <mxPoint x="151" y="170" as="targetPoint" />
            <Array as="points">
              <mxPoint x="101" y="430" />
            </Array>
          </mxGeometry>
        </mxCell>
      </root>
    </mxGraphModel>
  </diagram>
</mxfile>
